<svg width="28" height="28" viewBox="0 0 28 28" fill="none" xmlns="http://www.w3.org/2000/svg">
<path d="M23.625 17.5H21.875C21.6429 17.5 21.4204 17.5922 21.2563 17.7563C21.0922 17.9204 21 18.1429 21 18.375V24.5H3.5V7H11.375C11.6071 7 11.8296 6.90781 11.9937 6.74372C12.1578 6.57962 12.25 6.35706 12.25 6.125V4.375C12.25 4.14294 12.1578 3.92038 11.9937 3.75628C11.8296 3.59219 11.6071 3.5 11.375 3.5H2.625C1.92881 3.5 1.26113 3.77656 0.768845 4.26884C0.276562 4.76113 0 5.42881 0 6.125L0 25.375C0 26.0712 0.276562 26.7389 0.768845 27.2312C1.26113 27.7234 1.92881 28 2.625 28H21.875C22.5712 28 23.2389 27.7234 23.7312 27.2312C24.2234 26.7389 24.5 26.0712 24.5 25.375V18.375C24.5 18.1429 24.4078 17.9204 24.2437 17.7563C24.0796 17.5922 23.8571 17.5 23.625 17.5ZM26.6875 0H19.6875C18.5188 0 17.9348 1.41695 18.7578 2.24219L20.7118 4.19617L7.38281 17.5202C7.26045 17.6422 7.16337 17.7871 7.09712 17.9466C7.03088 18.1061 6.99678 18.2772 6.99678 18.4499C6.99678 18.6227 7.03088 18.7937 7.09712 18.9532C7.16337 19.1128 7.26045 19.2577 7.38281 19.3796L8.62258 20.6172C8.74451 20.7395 8.8894 20.8366 9.04894 20.9029C9.20848 20.9691 9.37952 21.0032 9.55227 21.0032C9.72501 21.0032 9.89605 20.9691 10.0556 20.9029C10.2151 20.8366 10.36 20.7395 10.482 20.6172L23.8044 7.29094L25.7578 9.24219C26.5781 10.0625 28 9.48828 28 8.3125V1.3125C28 0.964403 27.8617 0.630564 27.6156 0.384422C27.3694 0.138281 27.0356 0 26.6875 0Z" fill="#64FFDA"/>
</svg>
