<svg width="35" height="36" viewBox="0 0 35 36" fill="none" xmlns="http://www.w3.org/2000/svg">
<path d="M2.34482 20.6465L0.565163 18.8668C-0.188388 18.1133 -0.188388 16.8948 0.565163 16.1492L16.1412 0.565163C16.8948 -0.188388 18.1133 -0.188388 18.8588 0.565163L34.4348 16.1412C35.1884 16.8948 35.1884 18.1133 34.4348 18.8588L32.6552 20.6385C31.8936 21.4 30.6511 21.384 29.9055 20.6064L20.7106 10.9545V33.9939C20.7106 35.0601 19.8528 35.9179 18.7866 35.9179H16.2214C15.1552 35.9179 14.2974 35.0601 14.2974 33.9939V10.9545L5.09448 20.6144C4.34895 21.4 3.10639 21.4161 2.34482 20.6465Z" fill="#020C1B"/>
</svg>
